<svg xmlns="http://www.w3.org/2000/svg" width="216" height="29" viewBox="0 0 216 29">
    <g fill="none" fill-rule="evenodd">
        <path fill="#00AA9C" d="M28.658 16.365c2.652-2.297 2.427-10.088-.488-8.014-4.069 2.887-8.206 6.012-10.887 7.631-4.113 2.474-8.935 4.612-12.454 5.823-.991.346-1.186.356-1.172.537.005.18.313.2 1.168.149 5.893-.354 12.86-1.4 18.862-3.494 2.72-.948 3.609-1.454 4.971-2.632"/>
        <path fill="#006F60" d="M30.07 26.329c4.47-1.947 6.4-9.47 2.614-8.035-5.296 2.011-12.449 3.732-15.824 4.365-5.685 1.06-11.717 1.188-15.737 1.028-.565-.027-1.045-.116-1.117.098-.062.185.324.364.95.66 4.81 2.275 12.96 3.725 21.706 3.29 4.002-.197 5.893-.75 7.409-1.406"/>
        <path fill="#7BC043" d="M23.431 7.98c1.836-3.786-1.488-9.543-2.7-7.266-1.84 3.455-5.337 8.224-6.664 10.046-2.1 2.862-4.458 5.67-6.513 7.728-.525.524-.872.802-.779.934.099.133.364.01.915-.241 4.3-1.961 8.92-4.584 12.499-7.489 2.12-1.721 2.592-2.37 3.242-3.712"/>
        <path fill="#006F60" d="M211.208 12.188V9.716h-6.041V4.183h-2.592v5.533h-2.497v2.472h2.497v10.867c0 .873.138 1.648.407 2.303.274.663.66 1.22 1.15 1.663a4.502 4.502 0 0 0 1.71.965c.628.195 1.31.293 2.028.293.574 0 1.103-.057 1.574-.164a7.701 7.701 0 0 0 1.42-.49l.276-.123V24.92l-.652.282c-.467.2-.881.34-1.234.422a5.254 5.254 0 0 1-1.113.116c-.902 0-1.642-.217-2.195-.647-.517-.399-.78-1.152-.78-2.235v-10.67h6.042zM194.36 6.145h2.996V2.926h-2.996v3.219zm.203 21.828h2.59V9.716h-2.59v18.257zm-6.469-9.094c0 1.038-.185 1.99-.552 2.833a7.087 7.087 0 0 1-1.475 2.196 6.57 6.57 0 0 1-2.1 1.428 6.165 6.165 0 0 1-4.846.018 6.107 6.107 0 0 1-2.011-1.387c-.574-.6-1.037-1.34-1.372-2.203-.338-.87-.508-1.85-.508-2.92v-.066c0-1.093.167-2.08.493-2.937.325-.853.775-1.582 1.336-2.167a5.817 5.817 0 0 1 1.99-1.352 6.483 6.483 0 0 1 2.478-.475c.833 0 1.654.171 2.44.506a6.789 6.789 0 0 1 2.102 1.414 6.84 6.84 0 0 1 1.472 2.191c.367.857.553 1.814.553 2.852v.07zm-.1-6.363a14.03 14.03 0 0 0-.42-.477 9.338 9.338 0 0 0-1.636-1.394 7.99 7.99 0 0 0-2.06-.975 8.334 8.334 0 0 0-2.502-.361c-1.093 0-2.18.223-3.234.663a8.94 8.94 0 0 0-2.833 1.9c-.828.82-1.502 1.83-2.007 2.999-.507 1.175-.765 2.51-.765 3.973v.07c0 1.464.258 2.8.765 3.973.505 1.172 1.18 2.178 2.01 2.985a8.79 8.79 0 0 0 2.834 1.864 8.511 8.511 0 0 0 3.23.645c.9 0 1.74-.128 2.493-.38a8.504 8.504 0 0 0 2.035-.988 8.55 8.55 0 0 0 1.643-1.439c.153-.172.303-.346.447-.525v2.924h2.591V2.247h-2.591v10.269zM156.57 17.56c.095-.707.28-1.38.553-2.006a7.197 7.197 0 0 1 1.286-2.007 5.58 5.58 0 0 1 1.795-1.299 5.257 5.257 0 0 1 2.21-.469c.913 0 1.72.172 2.395.511a5.21 5.21 0 0 1 1.725 1.371c.47.578.843 1.25 1.104 1.997.214.607.362 1.243.448 1.902H156.57zm12.005-5.47a7.895 7.895 0 0 0-2.637-2.04c-1.026-.493-2.196-.741-3.475-.741-1.235 0-2.392.255-3.44.76a8.688 8.688 0 0 0-2.73 2.044 9.538 9.538 0 0 0-1.81 3.017 10.349 10.349 0 0 0-.655 3.68v.07c0 1.413.238 2.72.711 3.877.472 1.162 1.127 2.174 1.944 3.005a8.645 8.645 0 0 0 2.86 1.937 8.749 8.749 0 0 0 3.41.682c1.718 0 3.19-.334 4.37-.99a12.566 12.566 0 0 0 3.109-2.453l.327-.356-1.848-1.64-.312.332a9.705 9.705 0 0 1-2.374 1.847c-.858.478-1.939.722-3.205.722a6.254 6.254 0 0 1-2.285-.425 5.786 5.786 0 0 1-1.927-1.236 7 7 0 0 1-1.425-1.994c-.315-.643-.52-1.378-.619-2.193h14.16l.064-.395a2.38 2.38 0 0 0 .042-.397v-.359c0-1.333-.197-2.59-.583-3.732-.388-1.149-.951-2.166-1.672-3.022zm-14.713-2.633l-.457-.012a7.948 7.948 0 0 0-4.874 1.461 9.048 9.048 0 0 0-1.851 1.774 10.43 10.43 0 0 0-.447.61V9.717h-2.592v18.257h2.592v-7.566c0-1.338.195-2.533.577-3.55.383-1.015.9-1.874 1.541-2.56a6.308 6.308 0 0 1 2.216-1.552 6.881 6.881 0 0 1 2.656-.523h.639V9.457zM139.209 22.28l.327-.328 1.86 1.817-.348.339a22.867 22.867 0 0 1-1.981 1.718c-.69.526-1.433.984-2.21 1.356-.78.374-1.635.671-2.543.883-.909.208-1.908.317-2.974.317-1.743 0-3.385-.332-4.878-.99a11.981 11.981 0 0 1-3.881-2.704c-1.084-1.137-1.939-2.497-2.544-4.039-.604-1.542-.91-3.21-.91-4.958v-.07c0-1.726.313-3.386.928-4.929a12.994 12.994 0 0 1 2.557-4.07 11.994 11.994 0 0 1 3.88-2.754c1.493-.67 3.148-1.008 4.917-1.008 1.082 0 2.08.094 2.965.281.886.188 1.72.461 2.479.815.754.35 1.472.77 2.134 1.25.654.473 1.3 1.004 1.92 1.581l.352.328-1.908 1.973-.336-.324a18.705 18.705 0 0 0-1.58-1.357 9.7 9.7 0 0 0-3.724-1.75 10.034 10.034 0 0 0-2.337-.26c-1.345 0-2.609.261-3.758.775a9.192 9.192 0 0 0-3.004 2.148 9.992 9.992 0 0 0-1.504 2.161c-.143.29-.276.588-.397.895-.506 1.292-.76 2.684-.76 4.178v.067c0 1.494.258 2.892.777 4.192.122.308.256.605.4.895.422.806.927 1.538 1.518 2.18a9.336 9.336 0 0 0 3.007 2.164c1.148.525 2.411.792 3.756.792 1.628 0 3.055-.305 4.243-.902 1.21-.608 2.407-1.503 3.557-2.662zm-85.816 6.273c-7.5 0-13.071-5.823-13.071-13.187v-.073c0-7.29 5.462-13.26 13.29-13.26 4.806 0 7.683 1.612 10.049 3.956l-3.568 4.14c-1.966-1.796-3.969-2.896-6.518-2.896-4.296 0-7.39 3.592-7.39 7.987v.073c0 4.397 3.02 8.058 7.39 8.058 2.914 0 4.697-1.171 6.7-3.001l3.568 3.624c-2.62 2.82-5.534 4.58-10.45 4.58zm23.886-.44v-2.125c-1.346 1.502-3.203 2.492-5.898 2.492-3.678 0-6.699-2.126-6.699-6.008v-.073c0-4.284 3.24-6.263 7.864-6.263 1.966 0 3.387.33 4.77.806v-.33c0-2.308-1.42-3.589-4.187-3.589-2.111 0-3.605.403-5.39 1.06l-1.382-4.247c2.148-.954 4.26-1.576 7.573-1.576 6.044 0 8.702 3.15 8.702 8.463v11.39h-5.353zm.11-7.91c-.946-.44-2.185-.733-3.532-.733-2.367 0-3.823.953-3.823 2.71v.073c0 1.501 1.238 2.38 3.023 2.38 2.585 0 4.332-1.429 4.332-3.442v-.988zm18.934-6.265c-3.678 0-5.935 2.235-5.935 6.923v7.253h-5.534V8.479h5.534v3.957c1.13-2.711 2.95-4.47 6.227-4.324v5.825h-.292zm19.77 6.301h-13.58c.546 2.527 2.294 3.845 4.77 3.845 1.856 0 3.205-.586 4.733-2.013l3.168 2.819c-1.82 2.271-4.442 3.663-7.974 3.663-5.86 0-10.195-4.14-10.195-10.146v-.073c0-5.605 3.97-10.22 9.65-10.22 6.518 0 9.502 5.092 9.502 10.66v.073c0 .55-.037.88-.074 1.392zm-9.429-7.656c-2.292 0-3.787 1.647-4.224 4.176h8.339c-.327-2.492-1.785-4.176-4.115-4.176zm108.43-8.053c0 1.273-.973 2.252-2.238 2.252-1.265 0-2.266-.98-2.266-2.252 0-1.245 1.001-2.224 2.28-2.224a2.2 2.2 0 0 1 2.225 2.224zm-4.018 0c0 1.035.765 1.846 1.794 1.846.987.014 1.738-.81 1.738-1.832 0-1.021-.75-1.846-1.766-1.846-1.001 0-1.766.825-1.766 1.832zm1.377 1.231h-.43V3.424a4.44 4.44 0 0 1 .805-.07c.39 0 .584.07.723.182.14.098.237.28.237.504 0 .28-.209.461-.445.545v.028c.194.084.306.266.375.574.07.35.126.49.18.573h-.444c-.07-.084-.125-.294-.195-.601-.055-.266-.208-.378-.528-.378h-.278v.979zm0-1.315h.292c.306 0 .598-.098.598-.364 0-.223-.153-.39-.556-.39-.167 0-.264.013-.334.027v.727z"/>
    </g>
</svg>
